<svg width="30" height="30" viewBox="0 0 30 30" fill="none" xmlns="http://www.w3.org/2000/svg">
<path d="M15 1C17.3869 1 19.6761 1.94821 21.364 3.63604C23.0518 5.32387 24 7.61305 24 10C24 15.1 17 28.12 15 29C13 28.37 6 15.45 6 10C6 7.61305 6.94821 5.32387 8.63604 3.63604C10.3239 1.94821 12.6131 1 15 1V1ZM15 0C12.3478 0 9.8043 1.05357 7.92893 2.92893C6.05357 4.8043 5 7.34784 5 10C5 15.52 12.33 30 15 30C17.33 30 25 15.52 25 10C25 7.34784 23.9464 4.8043 22.0711 2.92893C20.1957 1.05357 17.6522 0 15 0V0Z" fill="#13343F"/>
<path d="M15 7.2002C15.5537 7.2002 16.0951 7.36441 16.5555 7.67208C17.016 7.97975 17.3749 8.41705 17.5868 8.92868C17.7987 9.44032 17.8542 10.0033 17.7462 10.5464C17.6381 11.0896 17.3714 11.5885 16.9799 11.9801C16.5883 12.3717 16.0894 12.6384 15.5462 12.7464C15.0031 12.8544 14.4401 12.799 13.9284 12.5871C13.4168 12.3751 12.9795 12.0162 12.6718 11.5558C12.3642 11.0953 12.2 10.554 12.2 10.0002C12.2 9.25759 12.495 8.5454 13.0201 8.0203C13.5452 7.49519 14.2573 7.2002 15 7.2002V7.2002ZM15 6.2002C14.2484 6.2002 13.5137 6.42306 12.8888 6.84061C12.2639 7.25816 11.7768 7.85164 11.4892 8.546C11.2016 9.24036 11.1263 10.0044 11.273 10.7415C11.4196 11.4787 11.7815 12.1558 12.3129 12.6872C12.8444 13.2186 13.5215 13.5806 14.2586 13.7272C14.9957 13.8738 15.7598 13.7986 16.4541 13.5109C17.1485 13.2233 17.742 12.7363 18.1595 12.1114C18.5771 11.4865 18.8 10.7518 18.8 10.0002C18.8 9.50117 18.7017 9.00704 18.5107 8.546C18.3197 8.08496 18.0398 7.66605 17.687 7.31319C17.3341 6.96033 16.9152 6.68042 16.4541 6.48945C15.9931 6.29849 15.499 6.2002 15 6.2002V6.2002Z" fill="#13343F"/>
</svg>
