<svg width="150" height="150" viewBox="0 0 150 150" fill="none" xmlns="http://www.w3.org/2000/svg">
<rect width="150" height="150" fill="#13343F"/>
<path d="M38.1842 54.666C34.3842 53.108 29.8242 51.512 29.8242 48.7C29.8242 45.964 32.9782 45.204 36.3982 45.28C38.0322 45.28 39.5902 45.698 40.7302 46.23L46.4682 52.994L45.4042 44.9H36.3982C34.0042 44.9 32.2562 45.128 30.8882 45.964C28.8362 47.218 28.0382 49.916 28.0382 51.93C28.0382 55.54 30.6602 57.668 33.0922 58.808L37.8422 61.05C40.9582 62.532 45.2522 64.584 45.2522 67.89C45.2522 70.588 42.2882 71.12 39.4002 71.12C37.3482 71.12 35.6762 70.74 34.5362 70.284L28.1902 63.444L29.3682 71.462L39.9322 71.5C44.6062 71.5 48.0642 68.764 48.0642 64.356C48.0642 58.77 43.7322 56.946 38.1842 54.666ZM46.9109 52.5L48.6969 54.628L54.3209 71.5H58.4249V68.004L61.2369 60.404L64.9229 71.5H69.0269V68.954C69.0269 63.482 71.3829 58.998 75.2589 57.326C74.4989 58.732 74.0429 60.328 74.0429 62.038C74.0429 67.396 78.3369 71.69 83.9229 71.69C89.6989 71.69 92.2829 68.232 93.4229 65.724C94.6389 69.03 97.6789 71.69 102.543 71.69C108.319 71.69 111.511 68.156 111.511 64.546C111.511 60.442 108.319 57.706 103.227 56.832H110.599C108.775 53.982 105.697 52.31 102.391 52.31C98.5529 52.31 95.8549 54.058 94.2969 56.528H91.7889C89.9269 53.868 86.9629 52.31 83.7709 52.31C80.2749 52.31 77.2349 54.134 75.5249 56.908C71.6489 58.466 69.3309 62.114 68.7989 67.282L64.4669 54.628L66.2149 52.5H57.5129L59.2989 54.628L61.0469 59.872L58.2729 67.51L53.8649 54.628L55.5749 52.5H46.9109ZM78.3369 56.528C78.6029 54.286 79.7809 52.994 81.9089 52.994C83.7709 52.994 85.5569 54.438 86.2029 56.528H78.3369ZM96.9569 56.528C97.2229 54.286 98.4009 52.994 100.529 52.994C102.505 52.994 104.215 54.552 104.823 56.528H96.9569ZM78.2989 56.832H94.1069C92.6629 59.34 92.3589 62.532 93.2709 65.268C92.3589 67.168 90.0029 69.486 87.0769 69.486C81.6049 69.486 77.7669 62.95 78.2989 56.832ZM96.9189 56.832H100.377C105.887 56.832 111.055 59.606 111.055 63.938C111.055 66.826 108.813 69.486 105.697 69.486C100.225 69.486 96.3869 62.95 96.9189 56.832ZM122.453 71.234C119.907 71.386 119.071 69.144 119.071 65.99V52.804H122.415V52.5H119.071V47.864L111.775 52.804H114.131V64.204C114.131 68.878 116.221 71.652 121.009 71.652C121.465 71.652 121.959 71.576 122.453 71.386V71.234ZM42.0795 76.9H29.1975L31.2495 79.218V101.182L29.1975 103.5H38.2415L36.1895 101.182V95.482C36.1895 92.214 39.2675 90.314 41.8515 88.908C45.9555 86.704 48.2355 85.602 48.2355 82.486C48.2355 79.294 45.5755 76.9 42.0795 76.9ZM36.1895 77.204H37.2155C40.9395 77.204 43.2195 78.99 43.2195 82.6C43.2195 84.424 42.8015 87.806 39.9135 89.706C37.8235 91.074 36.6835 92.252 36.1895 93.696V77.204ZM62.4208 84.5C57.6328 84.424 55.9988 86.438 55.0108 91.34V84.5L48.0188 86.818L50.0708 88.186V101.182L48.0188 103.5H57.0628L55.0108 101.182V93.316C55.0108 89.896 58.2028 89.554 60.9388 89.402L62.4208 84.5ZM60.7147 97.04C60.7147 100.726 63.4887 103.614 67.0607 103.614C69.6447 103.614 72.0767 102.208 73.2547 98.864V103.5H80.2467L78.1947 101.182V89.516C78.1947 85.792 75.0027 84.31 71.5827 84.31C68.1627 84.31 64.6287 86.172 63.1847 88.794H66.0347C68.9227 88.794 70.7087 90.884 71.3927 91.872C70.6327 91.15 69.8727 90.428 67.4787 90.428C63.7927 90.428 60.7147 93.24 60.7147 97.04ZM68.0867 88.832C68.5427 86.856 69.6067 84.766 71.4687 84.766C72.6467 84.766 73.2547 85.716 73.2547 87.654V95.216C72.0767 90.694 69.1887 89.25 68.0867 88.832ZM65.2747 95.026C65.2747 92.86 66.4147 90.808 68.4287 90.808C71.2027 90.808 73.1787 94.342 73.1787 97.078C73.1787 99.168 72.1907 101.372 70.0247 101.372C67.4787 101.372 65.2747 98.028 65.2747 95.026ZM99.0979 89.82C99.0979 86.78 97.0459 84.386 94.0439 84.386C92.0299 84.386 89.9019 85.45 87.9639 87.426V84.5L80.9719 87.084L83.0239 88.452V101.182L80.9719 103.5H90.0159L87.9639 101.182V87.882C88.8759 86.894 89.9399 86.4 90.9659 86.4C92.6379 86.4 94.1579 87.92 94.1579 89.858V101.182L92.1059 103.5H101.15L99.0979 101.182V89.82ZM101.609 97.04C101.609 100.726 104.383 103.614 107.955 103.614C110.539 103.614 112.971 102.208 114.149 98.864V103.5H121.141L119.089 101.182V89.516C119.089 85.792 115.897 84.31 112.477 84.31C109.057 84.31 105.523 86.172 104.079 88.794H106.929C109.817 88.794 111.603 90.884 112.287 91.872C111.527 91.15 110.767 90.428 108.373 90.428C104.687 90.428 101.609 93.24 101.609 97.04ZM108.981 88.832C109.437 86.856 110.501 84.766 112.363 84.766C113.541 84.766 114.149 85.716 114.149 87.654V95.216C112.971 90.694 110.083 89.25 108.981 88.832ZM106.169 95.026C106.169 92.86 107.309 90.808 109.323 90.808C112.097 90.808 114.073 94.342 114.073 97.078C114.073 99.168 113.085 101.372 110.919 101.372C108.373 101.372 106.169 98.028 106.169 95.026Z" fill="#EDBEB1"/>
</svg>
