<svg width="60" height="60" viewBox="0 0 60 60" fill="none" xmlns="http://www.w3.org/2000/svg">
<path fill-rule="evenodd" clip-rule="evenodd" d="M29.9958 13.6039C35.3381 13.6039 35.9652 13.6277 38.0768 13.723C40.0295 13.8103 41.0853 14.1357 41.7918 14.4136C42.7284 14.7787 43.3953 15.2074 44.0939 15.906C44.7924 16.6045 45.2289 17.2713 45.5862 18.208C45.8561 18.9145 46.1895 19.9702 46.2768 21.9231C46.3721 24.0345 46.3959 24.6616 46.3959 30.004C46.3959 35.3463 46.3721 35.9734 46.2768 38.085C46.1895 40.0377 45.864 41.0935 45.5862 41.8C45.2211 42.7366 44.7924 43.4035 44.0939 44.1021C43.3953 44.8006 42.7284 45.2371 41.7918 45.5944C41.0853 45.8643 40.0295 46.1977 38.0768 46.285C35.9652 46.3803 35.3381 46.4041 29.9958 46.4041C24.6534 46.4041 24.0264 46.3803 21.9149 46.285C19.962 46.1977 18.9063 45.8722 18.1998 45.5944C17.2631 45.2292 16.5963 44.8006 15.8978 44.1021C15.1992 43.4035 14.7626 42.7366 14.4054 41.8C14.1355 41.0935 13.8021 40.0377 13.7148 38.085C13.6195 35.9734 13.5957 35.3463 13.5957 30.004C13.5957 24.6616 13.6195 24.0345 13.7148 21.9231C13.8021 19.9702 14.1276 18.9145 14.4054 18.208C14.7705 17.2713 15.1992 16.6045 15.8978 15.906C16.5963 15.2074 17.2631 14.7708 18.1998 14.4136C18.9063 14.1437 19.962 13.8103 21.9149 13.723C24.0264 13.6198 24.6534 13.6039 29.9958 13.6039ZM29.9958 10C24.5661 10 23.8835 10.0238 21.7481 10.1191C19.6208 10.2143 18.168 10.5557 16.898 11.0478C15.5802 11.5559 14.4689 12.2465 13.3576 13.3578C12.2462 14.4691 11.5636 15.5884 11.0476 16.8982C10.5554 18.1683 10.2141 19.621 10.1188 21.7563C10.0236 23.8837 9.99976 24.5664 9.99976 29.9961C9.99976 35.4256 10.0236 36.1084 10.1188 38.2437C10.2141 40.3711 10.5554 41.8237 11.0476 43.1019C11.5556 44.4195 12.2462 45.5308 13.3576 46.6422C14.4689 47.7535 15.5882 48.4362 16.898 48.9522C18.168 49.4443 19.6208 49.7857 21.756 49.881C23.8914 49.9762 24.5661 50.0001 30.0038 50.0001C35.4413 50.0001 36.1161 49.9762 38.2514 49.881C40.3788 49.7857 41.8314 49.4443 43.1096 48.9522C44.4272 48.4441 45.5385 47.7535 46.6498 46.6422C47.7612 45.5308 48.4438 44.4115 48.9598 43.1019C49.452 41.8317 49.7934 40.3791 49.8887 38.2437C49.9839 36.1084 50.0078 35.4336 50.0078 29.9961C50.0078 24.5584 49.9839 23.8837 49.8887 21.7483C49.7934 19.621 49.452 18.1683 48.9598 16.8903C48.4518 15.5725 47.7612 14.4612 46.6498 13.3499C45.5385 12.2385 44.4194 11.5559 43.1096 11.0399C41.8394 10.5477 40.3868 10.2064 38.2514 10.1111C36.1082 10.0238 35.4255 10 29.9958 10ZM29.9958 19.7241C24.3281 19.7241 19.724 24.3202 19.724 29.9959C19.724 35.6716 24.3281 40.2678 29.9958 40.2678C35.6636 40.2678 40.2677 35.6637 40.2677 29.9959C40.2677 24.3282 35.6636 19.7241 29.9958 19.7241ZM29.9958 36.6639C26.3126 36.6639 23.3279 33.6792 23.3279 29.9959C23.3279 26.3127 26.3126 23.328 29.9958 23.328C33.6791 23.328 36.6638 26.3127 36.6638 29.9959C36.6638 33.6792 33.6791 36.6639 29.9958 36.6639ZM43.0698 19.3191C43.0698 20.6431 41.9966 21.7164 40.6725 21.7164C39.3486 21.7164 38.2752 20.6431 38.2752 19.3191C38.2752 17.9952 39.3486 16.9218 40.6725 16.9218C41.9966 16.9218 43.0698 17.9952 43.0698 19.3191Z" fill="#13343F"/>
</svg>
