<svg width="60" height="60" viewBox="0 0 60 60" fill="none" xmlns="http://www.w3.org/2000/svg">
<path d="M10 50L12.8251 39.7283C11.0818 36.7217 10.1658 33.3133 10.1675 29.8183C10.1725 18.8917 19.1066 10 30.0837 10C35.4107 10.0017 40.4111 12.0667 44.1723 15.8133C47.9318 19.56 50.0017 24.54 50 29.8367C49.995 40.765 41.0609 49.6567 30.0837 49.6567C26.7512 49.655 23.4673 48.8233 20.5585 47.2433L10 50V50ZM21.0475 43.655C23.8541 45.3133 26.5335 46.3067 30.077 46.3083C39.2004 46.3083 46.6323 38.9183 46.6374 29.8333C46.6407 20.73 39.2439 13.35 30.0904 13.3467C20.9604 13.3467 13.5335 20.7367 13.5301 29.82C13.5284 33.5283 14.6203 36.305 16.454 39.21L14.781 45.29L21.0475 43.655V43.655ZM40.1164 34.5483C39.9925 34.3417 39.6609 34.2183 39.1619 33.97C38.6645 33.7217 36.2179 32.5233 35.7607 32.3583C35.3052 32.1933 34.9736 32.11 34.6404 32.6067C34.3088 33.1017 33.3543 34.2183 33.0646 34.5483C32.7748 34.8783 32.4835 34.92 31.9861 34.6717C31.4887 34.4233 29.8844 33.9017 27.9838 32.2133C26.5051 30.9 25.5053 29.2783 25.2156 28.7817C24.9259 28.2867 25.1855 28.0183 25.4333 27.7717C25.6577 27.55 25.9307 27.1933 26.1802 26.9033C26.4331 26.6167 26.5151 26.41 26.6826 26.0783C26.8484 25.7483 26.7663 25.4583 26.6407 25.21C26.5151 24.9633 25.5204 22.525 25.1068 21.5333C24.7015 20.5683 24.2912 20.6983 23.9864 20.6833L23.0319 20.6667C22.7003 20.6667 22.1611 20.79 21.7056 21.2867C21.2501 21.7833 19.964 22.98 19.964 25.4183C19.964 27.8567 21.7475 30.2117 21.9953 30.5417C22.2448 30.8717 25.5036 35.875 30.4957 38.02C31.683 38.53 32.6107 38.835 33.3325 39.0633C34.5248 39.44 35.61 39.3867 36.4674 39.26C37.4236 39.1183 39.4114 38.0617 39.8267 36.905C40.242 35.7467 40.242 34.755 40.1164 34.5483V34.5483Z" fill="#13343F"/>
</svg>
